<svg width="43" height="31" viewBox="0 0 43 31" fill="none" xmlns="http://www.w3.org/2000/svg">
<path d="M7.2 15.65H6.6C7.1 15.25 7.7 14.9 8.4 14.6C9.1 14.3 10.05 14.15 11.25 14.15C13.25 14.15 14.95 14.85 16.35 16.25C17.85 17.65 18.6 19.65 18.6 22.25C18.6 24.75 17.8 26.85 16.2 28.55C14.6 30.15 12.5 30.95 9.9 30.95C7.3 30.95 5 29.95 3 27.95C1.1 25.85 0.150001 22.95 0.150001 19.25C0.150001 14.55 1.7 10.45 4.8 6.94999C7.9 3.34999 11.75 1.19999 16.35 0.499997V6.05C13.75 6.55 11.55 7.7 9.75 9.5C8.05 11.2 7.2 13.25 7.2 15.65ZM31.5 15.65H30.75C31.25 15.25 31.85 14.9 32.55 14.6C33.35 14.3 34.35 14.15 35.55 14.15C37.55 14.15 39.25 14.85 40.65 16.25C42.15 17.65 42.9 19.65 42.9 22.25C42.9 24.75 42.05 26.85 40.35 28.55C38.75 30.15 36.65 30.95 34.05 30.95C31.45 30.95 29.15 29.95 27.15 27.95C25.25 25.85 24.3 22.95 24.3 19.25C24.3 14.55 25.85 10.45 28.95 6.94999C32.05 3.34999 35.95 1.19999 40.65 0.499997V6.05C38.05 6.55 35.85 7.7 34.05 9.5C32.35 11.2 31.5 13.25 31.5 15.65Z" fill="#251A4B"/>
</svg>
