<svg width="56" height="56" viewBox="0 0 56 56" fill="none" xmlns="http://www.w3.org/2000/svg">
<g filter="url(#filter0_d_1350_613)">
<path d="M4 48L7.3901 35.674C5.29817 32.066 4.19894 27.976 4.20095 23.782C4.20698 10.67 14.9279 0 28.1005 0C34.4928 0.002 40.4933 2.48 45.0068 6.976C49.5182 11.472 52.002 17.448 52 23.804C51.994 36.918 41.273 47.588 28.1005 47.588C24.1015 47.586 20.1608 46.588 16.6702 44.692L4 48ZM17.257 40.386C20.625 42.376 23.8402 43.568 28.0924 43.57C39.0404 43.57 47.9588 34.702 47.9648 23.8C47.9688 12.876 39.0927 4.02 28.1085 4.016C17.1525 4.016 8.24014 12.884 8.23612 23.784C8.23411 28.234 9.54433 31.566 11.7448 35.052L9.73725 42.348L17.257 40.386ZM40.1397 29.458C39.991 29.21 39.5931 29.062 38.9942 28.764C38.3974 28.466 35.4614 27.028 34.9128 26.83C34.3662 26.632 33.9683 26.532 33.5684 27.128C33.1706 27.722 32.0251 29.062 31.6775 29.458C31.3298 29.854 30.9802 29.904 30.3833 29.606C29.7865 29.308 27.8613 28.682 25.5805 26.656C23.8061 25.08 22.6064 23.134 22.2587 22.538C21.9111 21.944 22.2226 21.622 22.52 21.326C22.7892 21.06 23.1168 20.632 23.4162 20.284C23.7197 19.94 23.8181 19.692 24.0191 19.294C24.218 18.898 24.1196 18.55 23.9688 18.252C23.8181 17.956 22.6245 15.03 22.1281 13.84C21.6418 12.682 21.1495 12.838 20.7837 12.82L19.6383 12.8C19.2404 12.8 18.5933 12.948 18.0467 13.544C17.5001 14.14 15.9568 15.576 15.9568 18.502C15.9568 21.428 18.097 24.254 18.3944 24.65C18.6938 25.046 22.6044 31.05 28.5948 33.624C30.0196 34.236 31.1329 34.602 31.999 34.876C33.4298 35.328 34.732 35.264 35.7609 35.112C36.9083 34.942 39.2936 33.674 39.792 32.286C40.2904 30.896 40.2904 29.706 40.1397 29.458Z" fill="#25D366"/>
</g>
<defs>
<filter id="filter0_d_1350_613" x="0" y="0" width="56" height="56" filterUnits="userSpaceOnUse" color-interpolation-filters="sRGB">
<feFlood flood-opacity="0" result="BackgroundImageFix"/>
<feColorMatrix in="SourceAlpha" type="matrix" values="0 0 0 0 0 0 0 0 0 0 0 0 0 0 0 0 0 0 127 0" result="hardAlpha"/>
<feOffset dy="4"/>
<feGaussianBlur stdDeviation="2"/>
<feComposite in2="hardAlpha" operator="out"/>
<feColorMatrix type="matrix" values="0 0 0 0 0 0 0 0 0 0 0 0 0 0 0 0 0 0 0.25 0"/>
<feBlend mode="normal" in2="BackgroundImageFix" result="effect1_dropShadow_1350_613"/>
<feBlend mode="normal" in="SourceGraphic" in2="effect1_dropShadow_1350_613" result="shape"/>
</filter>
</defs>
</svg>
