<svg width="132" height="59" viewBox="0 0 132 59" fill="none" xmlns="http://www.w3.org/2000/svg">
<path d="M18.8937 31.2668C24.0473 35.4278 29.1771 39.569 32.0472 41.8408C34.1656 43.5176 34.9302 44.0778 35.4042 44.4112L35.8208 44.7022L35.8212 44.7024C36.4668 45.1586 37.186 45.717 37.84 46.224L33.5504 51.756C32.8602 51.2208 32.2748 50.7676 31.7828 50.42C31.1762 49.9916 30.6515 49.6636 27.7027 47.3294C24.7991 45.0312 19.6355 40.8626 14.4964 36.7132L18.8937 31.2668ZM6.98989 8C7.41564 15.8307 7.8442 23.7129 8.044 29.2836L8.07116 30.08C8.50731 29.5334 8.96657 28.9808 9.45183 28.4222C13.3134 23.9772 18.7226 19.3139 24.0109 14.7451L26.2993 17.3936L28.5873 20.042C23.1753 24.7177 18.1987 29.027 14.7363 33.0126C11.3515 36.9092 9.43913 40.4322 7.37428 44.2538L4.29495 42.59L1.24317 40.9412L1.15841 40.94C1.20196 37.8968 1.24382 34.9822 1.04845 29.5346C0.851496 24.0437 0.427191 16.2376 0 8.38008L6.98989 8Z" fill="white"/>
<g style="mix-blend-mode:hard-light">
<path d="M77.0828 10.5068L61.7528 30.2398V24.1014L72.2299 10.5068H77.0828ZM62.7169 10.5068V34H58.6032V10.5068H62.7169ZM66.445 23.7157L69.0803 20.1805L77.1792 34H72.4227L66.445 23.7157ZM83.9341 34.4178C82.2629 34.4178 80.9345 33.9679 79.9489 33.068C78.9848 32.1467 78.5027 30.9468 78.5027 29.4685C78.5027 28.0115 79.0062 26.8546 80.0132 25.9975C81.0416 25.1191 82.4986 24.6049 84.384 24.4549L89.1405 24.0692V23.7157C89.1405 22.9872 89.0012 22.4087 88.7227 21.9802C88.4656 21.5303 88.0907 21.2089 87.5979 21.0161C87.1051 20.8018 86.5266 20.6947 85.8624 20.6947C84.7054 20.6947 83.8162 20.9304 83.1949 21.4017C82.5736 21.8517 82.2629 22.4944 82.2629 23.33H78.9205C78.9205 22.1731 79.2097 21.1768 79.7882 20.3412C80.3881 19.4841 81.2237 18.8199 82.295 18.3486C83.3877 17.8772 84.6411 17.6415 86.0552 17.6415C87.4907 17.6415 88.7227 17.8986 89.7511 18.4129C90.7796 18.9056 91.5723 19.6555 92.1294 20.6625C92.6865 21.6481 92.965 22.8801 92.965 24.3585V34H89.5262L89.2369 31.6539C88.8941 32.4681 88.2299 33.1323 87.2443 33.6465C86.2802 34.1607 85.1768 34.4178 83.9341 34.4178ZM85.1875 31.4611C86.4087 31.4611 87.3729 31.1183 88.0799 30.4326C88.8084 29.747 89.1726 28.7936 89.1726 27.5723V26.7367L85.8624 26.9938C84.6411 27.1009 83.7734 27.3581 83.2592 27.7651C82.745 28.1508 82.4879 28.665 82.4879 29.3078C82.4879 30.0148 82.7235 30.5505 83.1949 30.9147C83.6663 31.2789 84.3305 31.4611 85.1875 31.4611ZM96.8168 34V18.1236H100.738V34H96.8168ZM98.7451 14.9419C98.0809 14.9419 97.5132 14.7169 97.0418 14.267C96.5919 13.7956 96.3669 13.2279 96.3669 12.5637C96.3669 11.8995 96.5919 11.3424 97.0418 10.8925C97.5132 10.4425 98.0809 10.2176 98.7451 10.2176C99.4093 10.2176 99.9664 10.4425 100.416 10.8925C100.888 11.3424 101.123 11.8995 101.123 12.5637C101.123 13.2279 100.888 13.7956 100.416 14.267C99.9664 14.7169 99.4093 14.9419 98.7451 14.9419ZM103.567 29.1792H107.295C107.317 29.8649 107.574 30.4112 108.067 30.8183C108.56 31.2254 109.245 31.4289 110.124 31.4289C111.066 31.4289 111.773 31.2575 112.245 30.9147C112.738 30.5719 112.984 30.1112 112.984 29.5328C112.984 29.1471 112.855 28.8043 112.598 28.5043C112.341 28.2044 111.859 27.9794 111.152 27.8294L108.292 27.1545C106.856 26.8331 105.785 26.3189 105.078 25.6119C104.392 24.8834 104.049 23.8871 104.049 22.623C104.049 21.5946 104.317 20.7054 104.853 19.9555C105.41 19.2056 106.16 18.6378 107.103 18.2522C108.045 17.8451 109.127 17.6415 110.349 17.6415C111.527 17.6415 112.566 17.8558 113.466 18.2843C114.366 18.7128 115.062 19.3127 115.555 20.0841C116.069 20.8554 116.337 21.7553 116.359 22.7837H112.63C112.63 22.0981 112.416 21.5624 111.988 21.1768C111.559 20.7697 110.959 20.5661 110.188 20.5661C109.417 20.5661 108.817 20.7375 108.388 21.0803C107.96 21.4232 107.745 21.8838 107.745 22.4623C107.745 23.3407 108.431 23.9407 109.802 24.2621L112.663 24.937C113.991 25.2369 114.987 25.719 115.651 26.3832C116.337 27.0474 116.68 27.9901 116.68 29.2114C116.68 30.2827 116.401 31.2147 115.844 32.0074C115.287 32.7787 114.505 33.3787 113.498 33.8072C112.491 34.2143 111.334 34.4178 110.027 34.4178C108.056 34.4178 106.481 33.9357 105.303 32.9716C104.146 32.0074 103.567 30.7433 103.567 29.1792ZM58.175 54.18C57.845 54.18 57.56 54.065 57.32 53.835C57.08 53.605 56.96 53.325 56.96 52.995C56.96 52.665 57.08 52.385 57.32 52.155C57.56 51.915 57.845 51.795 58.175 51.795C58.505 51.795 58.79 51.915 59.03 52.155C59.27 52.385 59.39 52.665 59.39 52.995C59.39 53.325 59.27 53.605 59.03 53.835C58.79 54.065 58.505 54.18 58.175 54.18ZM63.9011 54.195C63.1811 54.195 62.5611 54.035 62.0411 53.715C61.5311 53.385 61.1311 52.93 60.8411 52.35C60.5611 51.77 60.4211 51.095 60.4211 50.325C60.4211 49.555 60.5611 48.875 60.8411 48.285C61.1311 47.685 61.5461 47.215 62.0861 46.875C62.6261 46.535 63.2661 46.365 64.0061 46.365C64.5261 46.365 65.0011 46.47 65.4311 46.68C65.8611 46.88 66.1911 47.165 66.4211 47.535V42.84H68.2361V54H66.5561L66.4361 52.845C66.2161 53.265 65.8761 53.595 65.4161 53.835C64.9661 54.075 64.4611 54.195 63.9011 54.195ZM64.3061 52.515C64.7361 52.515 65.1061 52.425 65.4161 52.245C65.7261 52.055 65.9661 51.79 66.1361 51.45C66.3161 51.1 66.4061 50.705 66.4061 50.265C66.4061 49.815 66.3161 49.425 66.1361 49.095C65.9661 48.755 65.7261 48.49 65.4161 48.3C65.1061 48.1 64.7361 48 64.3061 48C63.8861 48 63.5211 48.1 63.2111 48.3C62.9011 48.49 62.6611 48.755 62.4911 49.095C62.3311 49.435 62.2511 49.825 62.2511 50.265C62.2511 50.705 62.3311 51.095 62.4911 51.435C62.6611 51.775 62.9011 52.04 63.2111 52.23C63.5211 52.42 63.8861 52.515 64.3061 52.515ZM70.1432 54V46.59H71.9732V54H70.1432ZM71.0432 45.105C70.7332 45.105 70.4682 45 70.2482 44.79C70.0382 44.57 69.9332 44.305 69.9332 43.995C69.9332 43.685 70.0382 43.425 70.2482 43.215C70.4682 43.005 70.7332 42.9 71.0432 42.9C71.3532 42.9 71.6132 43.005 71.8232 43.215C72.0432 43.425 72.1532 43.685 72.1532 43.995C72.1532 44.305 72.0432 44.57 71.8232 44.79C71.6132 45 71.3532 45.105 71.0432 45.105ZM73.4439 50.13C73.4439 49.41 73.5889 48.77 73.8789 48.21C74.1789 47.64 74.5939 47.19 75.1239 46.86C75.6539 46.53 76.2689 46.365 76.9689 46.365C77.5989 46.365 78.1389 46.505 78.5889 46.785C79.0389 47.055 79.3539 47.435 79.5339 47.925L79.3389 48.09L79.4889 46.59H81.1839V53.625C81.1839 54.445 81.0239 55.155 80.7039 55.755C80.3939 56.365 79.9489 56.83 79.3689 57.15C78.7989 57.48 78.1089 57.645 77.2989 57.645C76.2389 57.645 75.3689 57.36 74.6889 56.79C74.0089 56.22 73.6089 55.44 73.4889 54.45H75.3189C75.3789 54.93 75.5789 55.305 75.9189 55.575C76.2689 55.845 76.7289 55.98 77.2989 55.98C77.9289 55.98 78.4289 55.795 78.7989 55.425C79.1789 55.065 79.3689 54.575 79.3689 53.955V52.11L79.5789 52.305C79.3989 52.775 79.0689 53.15 78.5889 53.43C78.1089 53.71 77.5539 53.85 76.9239 53.85C76.2239 53.85 75.6139 53.69 75.0939 53.37C74.5739 53.05 74.1689 52.61 73.8789 52.05C73.5889 51.49 73.4439 50.85 73.4439 50.13ZM75.2889 50.085C75.2889 50.505 75.3689 50.88 75.5289 51.21C75.6989 51.53 75.9339 51.785 76.2339 51.975C76.5339 52.165 76.8839 52.26 77.2839 52.26C77.7039 52.26 78.0639 52.17 78.3639 51.99C78.6739 51.8 78.9089 51.545 79.0689 51.225C79.2389 50.895 79.3239 50.515 79.3239 50.085C79.3239 49.655 79.2439 49.285 79.0839 48.975C78.9239 48.655 78.6889 48.405 78.3789 48.225C78.0789 48.045 77.7139 47.955 77.2839 47.955C76.8739 47.955 76.5189 48.05 76.2189 48.24C75.9189 48.42 75.6889 48.67 75.5289 48.99C75.3689 49.31 75.2889 49.675 75.2889 50.085ZM83.0778 54V46.59H84.9078V54H83.0778ZM83.9778 45.105C83.6678 45.105 83.4028 45 83.1828 44.79C82.9728 44.57 82.8678 44.305 82.8678 43.995C82.8678 43.685 82.9728 43.425 83.1828 43.215C83.4028 43.005 83.6678 42.9 83.9778 42.9C84.2878 42.9 84.5478 43.005 84.7578 43.215C84.9778 43.425 85.0878 43.685 85.0878 43.995C85.0878 44.305 84.9778 44.57 84.7578 44.79C84.5478 45 84.2878 45.105 83.9778 45.105ZM86.0635 46.59H90.7435V48.12H86.0635V46.59ZM89.3185 54H87.4885V44.28H89.3185V54ZM94.0572 54.195C93.2772 54.195 92.6572 53.985 92.1972 53.565C91.7472 53.135 91.5222 52.575 91.5222 51.885C91.5222 51.205 91.7572 50.665 92.2272 50.265C92.7072 49.855 93.3872 49.615 94.2672 49.545L96.4872 49.365V49.2C96.4872 48.86 96.4222 48.59 96.2922 48.39C96.1722 48.18 95.9972 48.03 95.7672 47.94C95.5372 47.84 95.2672 47.79 94.9572 47.79C94.4172 47.79 94.0022 47.9 93.7122 48.12C93.4222 48.33 93.2772 48.63 93.2772 49.02H91.7172C91.7172 48.48 91.8522 48.015 92.1222 47.625C92.4022 47.225 92.7922 46.915 93.2922 46.695C93.8022 46.475 94.3872 46.365 95.0472 46.365C95.7172 46.365 96.2922 46.485 96.7722 46.725C97.2522 46.955 97.6222 47.305 97.8822 47.775C98.1422 48.235 98.2722 48.81 98.2722 49.5V54H96.6672L96.5322 52.905C96.3722 53.285 96.0622 53.595 95.6022 53.835C95.1522 54.075 94.6372 54.195 94.0572 54.195ZM94.6422 52.815C95.2122 52.815 95.6622 52.655 95.9922 52.335C96.3322 52.015 96.5022 51.57 96.5022 51V50.61L94.9572 50.73C94.3872 50.78 93.9822 50.9 93.7422 51.09C93.5022 51.27 93.3822 51.51 93.3822 51.81C93.3822 52.14 93.4922 52.39 93.7122 52.56C93.9322 52.73 94.2422 52.815 94.6422 52.815ZM101.915 54H100.1V42.84H101.915V54Z" fill="white"/>
</g>
</svg>
